<svg xmlns="http://www.w3.org/2000/svg" viewBox="0 0 1350.61 943.31"><defs><style>.cls-1{fill:#e07955;stroke:#a67c52;stroke-width:26px;}.cls-1,.cls-3,.cls-5,.cls-6{stroke-miterlimit:10;}.cls-2{fill:#bba6a9;}.cls-3{fill:#fff;stroke:#000;}.cls-4{fill:#844651;}.cls-5{fill:#b2446d;stroke:#510833;}.cls-6{fill:none;stroke:#772d0e;stroke-width:10px;}</style></defs><title>Asset 26</title><g id="Layer_2" data-name="Layer 2"><g id="Layer_1-2" data-name="Layer 1"><path class="cls-1" d="M986.18,470.31c0,58.3,377.48,319.21,350,367-21.11,36.7-442.31-136.83-475.71-110-15.17,12.16,8.9,69.42-8.29,79-29.26,16.38-101.54-17.42-135.41-9.57C689.82,803,591.16,930.31,562.18,930.31c-67.85,0-60.74-142.18-114.57-173.68-25.22-14.76-199.93,96.79-220.43,76.68C208.72,815.19,344,665.88,330.15,644.2c-16.6-26-308.26,7.14-317-22.89-8.26-28.49,266-120,266-151,0-23.1-164.67-146.22-160-168,6.69-31.17,185,39.78,200.11,12.4a338.35,338.35,0,0,1,61.65-80.29c24.53-23.65,17.27-97.18,48.24-113.11,29.93-15.4,97.91,26.5,132.26,19.82,23-4.47,52.34-60.82,76.74-60.82,42.5,0,77.74,61.12,115.49,74.19C792.08,167.8,914.31-9,945.18,15.31c32.19,25.38-27.35,252.38-6.29,287,18.68,30.69,215.58-65.84,223.29-30C1166.89,294.18,986.18,447.11,986.18,470.31Z"/><path d="M827,460.79a89.79,89.79,0,0,0-21.31-40.49,89.86,89.86,0,0,0-32.39-30.09,119.76,119.76,0,0,0-20.83-28.09l-24.1-18.61a118.54,118.54,0,0,0-60.09-16.26,90.66,90.66,0,0,0-32.49,4.53,97,97,0,0,0-15.29-.61c-7.75.33-15.49,1.18-23.2,2.26a119.61,119.61,0,0,0-52.16,2.45c-4.95,1.62-9.84,3.39-14.66,5.36-14,5.75-28.26,11.26-41.81,18.07-20.19,10.14-39.09,29.16-49.79,48.92-12.66,23.4-14.86,36.6-16.82,63.23-.23,3.07-.34,6.16-.35,9.23,0,2.54.12,5.06.34,7.59.95,10.5,2.5,23.16,4.51,33.53.29,1.5.55,3,1,4.47,1.84,6.55,5.43,13.61,7.87,19.4,2.89,6.84,5.34,14.09,9.37,20.42,3.69,5.79,8.42,11.31,12.5,16.59,4.38,5.67,8.63,11.58,13.4,17,3.34,3.79,6.93,7.37,10.47,11C497,626.82,512.36,643.94,529,659.28l12.05,9.31q6.58,5.16,13.27,10.23c7.61,4.88,34.48,13.85,31.44,13.2a118.12,118.12,0,0,0,34.31,4.3c21.74-.7,44.27-5.65,62.91-17.53,8.25-5.25,17.77-13.37,25.4-19.53q2-1.6,4-3.25,11.83-9.94,22.79-20.87A410.1,410.1,0,0,0,767.67,598a89.18,89.18,0,0,0,16.69-12.09,59.74,59.74,0,0,0,21.36-21.36A89.74,89.74,0,0,0,827,524.09q2.13-15.83,4.25-31.65Q829.15,476.62,827,460.79Z"/><path d="M585.8,692l-1.71-.45C585,691.82,585.51,692,585.8,692Z"/><path class="cls-2" d="M417.68,493.81c-4.29,2.05,13.12,50.61,37,95,19,35.33,32.58,50.29,38,56,9.71,10.22,27.29,28.39,55,41,41.56,18.89,80.31,13.63,98,11,58.22-8.68,95.67-41.22,110-54,46.63-41.61,62.27-90.15,69-112,9.08-29.47,12.32-59.07,9-60-3.81-1.08-12.36,36.82-40,82-15.34,25.07-30.27,49.47-58,70-55.22,40.87-118.53,34.82-126,34-50.4-5.59-83.87-31.81-104-48C442.23,557.74,422.63,491.43,417.68,493.81Z"/><path class="cls-3" d="M530.18,381.31c1.05,24.27,1.57,36.41,10,42,2.94,1.94,10,2,24,2,15.13,0,22.76-.05,26-3s4-6.72,3-31c-1.21-30.82-2.89-34.42-6-37s-11.53-2.84-28-3c-20.42-.21-23.21,1.38-25,3S529.25,359.65,530.18,381.31Z"/><path class="cls-3" d="M650.68,339.81c16,9.34,11.28,40.4,8,62a19,19,0,0,1-4,10c-4.28,5-10.78,6.05-27,7-24.5,1.42-25.93,3.15-29,1-5.18-3.65-6.19-12.81-8-31-1.93-19.46-2.81-29.3,1-35,6.3-9.41,18.4-11.49,33-14C638.08,337.5,644.78,336.35,650.68,339.81Z"/><path class="cls-3" d="M657.68,336.81c7.36-6.93,25.25-3.6,34,6,3.66,4,5.16,11.72,8,27,3,15.82,4.38,23.81,2,28-6.46,11.39-28.26,15.4-38,7-4-3.5-3.73-7.17-6-32C655.11,344.59,653.89,340.38,657.68,336.81Z"/><path class="cls-3" d="M713.68,349.81c-3.11.37-9.5,1.13-13,6-.75,1-2.76,4.23-1,17,1.7,12.28,2.55,18.42,7,23,7.46,7.67,18.27,7.11,20,7,8-.55,18.54-4.95,21-13,1-3.21.32-6.48-1-13-1.1-5.43-1.87-9.26-4-13C737.26,354.26,724.84,348.48,713.68,349.81Z"/><path class="cls-3" d="M525.68,358.81c-5.06-4.54-13.25-3.15-20-2s-14,2.37-18,8c-2.85,4-1.34,6.36-1,24,.3,15.43-.73,19.56,3,24,3.19,3.78,7.5,5,11,6,2.28.64,11.72,3.16,21-2a21.11,21.11,0,0,0,8-7c3.87-6,1.79-10.91,0-29C528.1,364.82,529.05,361.82,525.68,358.81Z"/><path class="cls-3" d="M471.68,377.81c-9.53,2.11-13.56,11.88-14,13-4.21,10.69,0,25.36,9,29,4.9,2,10.16.28,11,0,1.13-.38,6.4-2.14,9-7,1.69-3.15.92-5.09,0-15-1.23-13.26-.39-15.61-3-18C479.6,376.05,472.89,377.54,471.68,377.81Z"/><path class="cls-4" d="M420.18,512.31c-2.51-.09-21.81-70.54,17-122,23.89-31.68,61.26-44.83,93-56a297.93,297.93,0,0,1,59-14c35.63-5.18,68-9.88,104,1,38.58,11.65,60.29,34.81,97,74,41.46,44.24,44,67.19,44,78,0,20.47-9,37.25-10,37-1.26-.31,10-25.9,2-53-1.69-5.77-4.4-12.1-26-38-28.11-33.72-42.59-50.83-63-63a177.4,177.4,0,0,0-39-17c-20-6.37-34.76-11.06-53-9-24.22,2.72-26.53,14.15-53,16-13.93,1-13.77-2.17-33-2a164.22,164.22,0,0,0-48,7,144.92,144.92,0,0,0-52,29C410.12,424.4,423,512.41,420.18,512.31Z"/><path class="cls-3" d="M581.18,604.31c-1.3,2.43.28,9.82,3.5,24.5,2.47,11.25,3.62,14.72,7,17,3.21,2.15,6.73,2.1,13,2,7.78-.13,12.08-.2,15-3,1.59-1.53,3.3-4.37,1-24-1.4-12-2.15-18.07-4.5-20.5C607.88,591.7,586.57,594.24,581.18,604.31Z"/><path class="cls-3" d="M619.68,598.81c6.64-9.86,28.31-9.68,33-2,.57.92.62,1.52,1,5,1.07,9.65,1.81,19.35,3,29,.63,5,1,6.31,0,8-2.28,4-8.58,4.49-15,5-6.73.52-10.1.79-13-1-3.19-2-4.71-5.39-7-18C618.93,609.59,617.55,602,619.68,598.81Z"/><path class="cls-3" d="M672.68,589.81c5.12-.44,11.66-1,17,3,3.67,2.73,5.12,7.82,8,18,2.74,9.65,5.45,19.6,1,23a4.5,4.5,0,0,1-.9.54c-1.81.87-4.66.91-16.1,1.46-13.41.64-15.87,2.89-19,1s-2.44-5.12-5-22c-2-13.36-3.1-15.86-1-19C660,590.88,667.12,590.28,672.68,589.81Z"/><path class="cls-3" d="M717.68,579.81c-8.57-1.68-17.81,3.78-21,11-.66,1.51-1.34,3.73,1,18,3.2,19.45,5.44,21.26,7,22,2.48,1.17,6.35-.21,14-3,9.89-3.62,14.84-5.43,17-9,4.05-6.68.35-15.44-2-21C730.68,590.68,726.85,581.6,717.68,579.81Z"/><path class="cls-3" d="M748.68,559.81c-2.4.17-2.52,1.1-13,8-10.31,6.78-12.36,7.3-13,10-.92,3.89,2.62,5.85,9,16,7.34,11.66,7.43,16.64,11,17,3.77.37,4.91-5.06,15-15,7.65-7.54,10-7.35,11-11C771.54,574.92,758.91,559.05,748.68,559.81Z"/><path class="cls-3" d="M784.68,536.81c-4.56-.19-11.1,3.87-24,12-4.1,2.58-7.29,4.7-7,7,.25,1.9,2.73,2.64,5,4,9.67,5.75,8.16,18.21,13,19,2.87.46,4.71-3.69,13-15,10.31-14.07,14.4-17.13,13-21C795.71,537.35,785.22,536.83,784.68,536.81Z"/><path class="cls-3" d="M566.68,599.81c-14.31,1.15-16.72-.37-19,2-2.5,2.61-1.37,8.1,1,19,2.62,12,4,18.06,9,21,1,.56,1.53.72,11,2,14.1,1.9,15.13,1.86,16,1,3.12-3.09-3.15-9.39-5-24-1.46-11.63,1.17-18.2-3-21C575,598.7,573.88,599.23,566.68,599.81Z"/><path class="cls-3" d="M532.68,592.81c-8.59,1.62-11.91,11-13,14-.85,2.4-4.08,11.46,1,19,3.85,5.69,10.16,7.12,14,8s10.91,2.47,14-1c2.65-3-.39-6.61-1-18-.55-10.46,1.7-13.15-1-17C543.75,593.61,537.63,591.87,532.68,592.81Z"/><path class="cls-3" d="M507.68,585.81c-2,.22-12.32,1.33-15,8-3.16,7.88,6.34,18.57,15,22,1.7.67,3.27,1.41,5,1,2.75-.66,4.24-3.44,7-10,4-9.38,5.9-14.1,5-16C521.62,584.34,508.33,585.74,507.68,585.81Z"/><path class="cls-3" d="M479.68,557.81c-1-.06-6.24-.23-9,3-6.64,7.77,3.34,32.44,15,33,4.14.19,9.83-2.58,13-7a10.68,10.68,0,0,0,2-4c1.25-5.44-3-10.42-7-15C488.85,562.2,485.34,558.13,479.68,557.81Z"/><path class="cls-4" d="M418.18,497.31c.9-.55,7.86,10.13,47,65,27.67,38.78,30.35,42.07,36,47,29.49,25.66,64.71,30.15,87,33,15.92,2,58.43,5.64,102-11,97.33-37.18,133.53-150,139-147,4.07,2.24-14.63,65.34-67,117-16.12,15.9-46,44.7-95,58-14.36,3.9-45.75,12-84,4-60.31-12.69-95.6-56.78-119-86C432.78,538.07,416.54,498.3,418.18,497.31Z"/><path class="cls-5" d="M459.68,520.81c5.72,25.84,33.93,39.44,48,46,108.56,50.54,290.51-8.92,298-77,3.19-28.94-24.88-61.78-54-72-39.2-13.77-57.59,21.41-126,27-62.64,5.11-80.78-21.64-118-3C478.46,456.44,453.13,491.21,459.68,520.81Z"/><path class="cls-6" d="M388.18,302.31c-9.8,18.35-25.2,52.17-33.28,100.34a395.58,395.58,0,0,0,1.23,135.66"/><path class="cls-6" d="M829.18,260.31c13.67,11.84,25.5,36.12,47,60,49.29,54.73,26.6,106.21,18,126"/></g></g></svg>