<?xml version="1.0" encoding="utf-8"?>
<!-- Generator: Adobe Illustrator 23.1.1, SVG Export Plug-In . SVG Version: 6.00 Build 0)  -->
<svg version="1.1" id="Layer_1" xmlns="http://www.w3.org/2000/svg" xmlns:xlink="http://www.w3.org/1999/xlink" x="0px" y="0px"
	 viewBox="0 0 1920 1080" style="enable-background:new 0 0 1920 1080;" xml:space="preserve">
<style type="text/css">
	.st0{fill:#895C4E;}
	.st1{fill:#FF8E66;}
</style>
<path class="st0" d="M599,332c0-14,56,45,122,57s214,27,214,27s69-23,75,7s-6,89-31,87s-67,5-81,4c-17.76-1.27-14,47-6,60s7,65,7,65
	s8,25-6,25s-51,3-53-10c-2.05-13.3,17-4,15-23s-7-45,0-53s-15-63-35-63s-110,5-137,22s-77.2,69.35-77.2,69.35S599,346,599,332z"/>
<g>
	<ellipse class="st1" cx="567" cy="460" rx="91.5" ry="159.5"/>
	<path class="st0" d="M567,304c22.78,0,44.49,15.72,61.13,44.27C645.46,378,655,417.68,655,460s-9.54,82-26.87,111.73
		C611.49,600.28,589.78,616,567,616s-44.49-15.72-61.13-44.27C488.54,542,479,502.32,479,460s9.54-82,26.87-111.73
		C522.51,319.72,544.22,304,567,304 M567,297c-52.47,0-95,72.98-95,163s42.53,163,95,163s95-72.98,95-163S619.47,297,567,297
		L567,297z"/>
</g>
<g>
	<path class="st0" d="M576,465c0,42.53,31.76,81,66,81s36-161,6-161C613.76,385,576,422.47,576,465z"/>
</g>
</svg>
