<?xml version="1.0" encoding="utf-8"?>
<!-- Generator: Adobe Illustrator 23.1.1, SVG Export Plug-In . SVG Version: 6.00 Build 0)  -->
<svg version="1.1" id="Layer_1" xmlns="http://www.w3.org/2000/svg" xmlns:xlink="http://www.w3.org/1999/xlink" x="0px" y="0px"
	 viewBox="0 0 1920 1080" style="enable-background:new 0 0 1920 1080;" xml:space="preserve">
<style type="text/css">
	.st0{fill:#E07955;stroke:#A67C52;stroke-width:26;stroke-miterlimit:10;}
	.st1{fill:#BBA6A9;}
	.st2{fill:#FFFFFF;stroke:#000000;stroke-miterlimit:10;}
	.st3{fill:#844651;}
	.st4{fill:#B2446D;stroke:#510833;stroke-miterlimit:10;}
	.st5{fill:none;stroke:#772D0E;stroke-width:10;stroke-miterlimit:10;}
</style>
<path class="st0" d="M1325,586c0,58.3,377.48,319.21,350,367c-21.11,36.71-442.32-136.82-475.71-110.05
	c-15.17,12.16,8.9,69.42-8.29,79.05c-29.26,16.38-101.54-17.42-135.42-9.56C1028.63,918.69,929.97,1046,901,1046
	c-67.85,0-60.74-142.17-114.57-173.67C761.21,857.57,586.5,969.11,566,949c-18.46-18.11,116.79-167.42,102.96-189.11
	C652.36,733.86,360.71,767.03,352,737c-8.26-28.49,266-120.02,266-151c0-23.1-164.67-146.21-160-168
	c6.68-31.17,185.03,39.78,200.11,12.4c16.32-29.64,37.16-56.68,61.65-80.29C744.29,326.47,737.02,252.94,768,237
	c29.93-15.4,97.91,26.51,132.26,19.83C923.27,252.35,952.6,196,977,196c42.5,0,77.74,61.13,115.48,74.19
	C1130.9,283.49,1253.12,106.65,1284,131c32.19,25.39-27.36,252.39-6.29,287c18.68,30.69,215.58-65.84,223.29-30
	C1505.71,409.87,1325,562.8,1325,586z"/>
<g>
	<path d="M1165.85,576.49c-3.68-15.49-10.79-28.99-21.31-40.49c-8.19-12.64-18.99-22.67-32.38-30.09
		c-5.46-10.23-12.4-19.59-20.84-28.08c-8.03-6.21-16.06-12.41-24.1-18.62c-18.57-10.77-38.6-16.19-60.09-16.26
		c-11.36-0.43-22.19,1.08-32.49,4.53c-5.11-0.6-10.26-0.83-15.29-0.61c-7.75,0.33-15.49,1.18-23.2,2.26
		c-17.39-3.03-34.77-2.21-52.16,2.46c-4.95,1.62-9.84,3.38-14.66,5.36c-14.01,5.75-28.26,11.26-41.82,18.07
		c-20.19,10.14-39.08,29.16-49.78,48.92c-12.67,23.4-14.86,36.6-16.83,63.23c-0.23,3.06-0.33,6.16-0.35,9.23
		c-0.01,2.54,0.12,5.06,0.35,7.59c0.95,10.5,2.49,23.16,4.5,33.53c0.29,1.51,0.56,2.99,0.97,4.47c1.84,6.55,5.43,13.61,7.87,19.4
		c2.89,6.85,5.34,14.1,9.37,20.43c3.69,5.79,8.42,11.31,12.5,16.59c4.38,5.67,8.63,11.58,13.4,16.98
		c3.35,3.79,6.94,7.37,10.48,10.98c15.87,16.18,31.19,33.3,47.87,48.63c4.02,3.1,8.03,6.21,12.05,9.31
		c4.39,3.45,8.82,6.86,13.27,10.23c7.61,4.88,34.48,13.85,31.44,13.2c11.14,3.01,22.86,4.67,34.31,4.3
		c21.74-0.7,44.27-5.65,62.91-17.53c8.25-5.26,17.77-13.37,25.4-19.53c1.33-1.07,2.65-2.15,3.95-3.25
		c7.89-6.63,15.49-13.59,22.79-20.87c11.7-11.66,22.33-24.2,32.51-37.11c5.96-3.34,11.53-7.37,16.69-12.09
		c8.95-5.29,16.06-12.41,21.36-21.36c10.52-11.5,17.63-25,21.31-40.49c1.42-10.55,2.84-21.1,4.25-31.65
		C1168.68,597.59,1167.26,587.04,1165.85,576.49z"/>
	<path d="M924.62,807.72c-0.57-0.15-1.14-0.29-1.71-0.45C923.78,807.51,924.33,807.66,924.62,807.72z"/>
</g>
<path class="st1" d="M756.5,609.5c-4.29,2.06,13.12,50.62,37,95c19.01,35.34,32.58,50.29,38,56c9.71,10.22,27.29,28.4,55,41
	c41.55,18.9,80.31,13.64,98,11c58.22-8.67,95.67-41.21,110-54c46.62-41.61,62.27-90.14,69-112c9.08-29.47,12.32-59.06,9-60
	c-3.82-1.08-12.36,36.83-40,82c-15.34,25.07-30.27,49.47-58,70c-55.22,40.88-118.53,34.83-126,34c-50.4-5.58-83.88-31.8-104-48
	C781.05,673.44,761.45,607.13,756.5,609.5z"/>
<path class="st2" d="M869,497c1.04,24.28,1.56,36.42,10,42c2.94,1.95,10,1.99,24,2c15.13,0.01,22.75-0.04,26-3
	c3.16-2.87,3.96-6.71,3-31c-1.22-30.82-2.89-34.41-6-37c-3.23-2.69-11.53-2.83-28-3c-20.42-0.21-23.22,1.39-25,3
	C871.25,471.58,868.07,475.35,869,497z"/>
<path class="st2" d="M989.5,455.5c15.98,9.35,11.27,40.41,8,62c-0.42,2.8-1.12,6.61-4,10c-4.28,5.03-10.78,6.06-27,7
	c-24.51,1.43-25.93,3.15-29,1c-5.19-3.64-6.2-12.81-8-31c-1.93-19.45-2.82-29.3,1-35c6.3-9.41,18.39-11.49,33-14
	C976.9,453.2,983.59,452.05,989.5,455.5z"/>
<path class="st2" d="M996.5,452.5c7.36-6.93,25.24-3.6,34,6c3.66,4.01,5.15,11.73,8,27c2.95,15.82,4.37,23.82,2,28
	c-6.46,11.39-28.26,15.41-38,7c-4.04-3.49-3.73-7.16-6-32C993.92,460.29,992.71,456.07,996.5,452.5z"/>
<path class="st2" d="M1052.5,465.5c-3.12,0.37-9.5,1.13-13,6c-0.75,1.05-2.77,4.23-1,17c1.7,12.28,2.55,18.42,7,23
	c7.46,7.67,18.26,7.12,20,7c8.03-0.54,18.54-4.95,21-13c0.98-3.21,0.32-6.47-1-13c-1.1-5.43-1.87-9.26-4-13
	C1076.08,469.96,1063.66,464.17,1052.5,465.5z"/>
<path class="st2" d="M864.5,474.5c-5.06-4.53-13.25-3.14-20-2c-6.76,1.15-13.98,2.37-18,8c-2.85,3.99-1.34,6.37-1,24
	c0.3,15.43-0.74,19.56,3,24c3.18,3.78,7.5,5.01,11,6c2.28,0.65,11.72,3.17,21-2c1.9-1.05,5.45-3.03,8-7c3.87-6.01,1.79-10.9,0-29
	C866.92,480.51,867.86,477.51,864.5,474.5z"/>
<path class="st2" d="M810.5,493.5c-9.53,2.12-13.56,11.88-14,13c-4.22,10.7-0.05,25.36,9,29c4.89,1.97,10.16,0.28,11,0
	c1.13-0.38,6.39-2.14,9-7c1.69-3.15,0.92-5.09,0-15c-1.23-13.25-0.4-15.6-3-18C818.42,491.74,811.71,493.23,810.5,493.5z"/>
<path class="st3" d="M759,628c-2.51-0.09-21.82-70.54,17-122c23.89-31.68,61.26-44.83,93-56c25.74-9.06,46.6-12.2,59-14
	c35.62-5.17,67.99-9.87,104,1c38.58,11.65,60.28,34.81,97,74c41.46,44.25,43.99,67.19,44,78c0.02,20.47-8.97,37.25-10,37
	c-1.26-0.31,9.96-25.9,2-53c-1.69-5.77-4.4-12.1-26-38c-28.12-33.72-42.59-50.82-63-63c-16.18-9.65-30.5-14.3-39-17
	c-20.03-6.37-34.76-11.05-53-9c-24.22,2.72-26.53,14.16-53,16c-13.94,0.97-13.77-2.17-33-2c-7.87,0.07-26.69,0.36-48,7
	c-25.76,8.03-44.06,21.87-52,29C748.93,540.1,761.81,628.1,759,628z"/>
<path class="st2" d="M920,720c-1.31,2.44,0.28,9.83,3.5,24.5c2.47,11.25,3.61,14.72,7,17c3.21,2.16,6.72,2.1,13,2
	c7.77-0.12,12.08-0.19,15-3c1.59-1.53,3.29-4.37,1-24c-1.4-12.01-2.15-18.07-4.5-20.5C946.69,707.39,925.39,709.94,920,720z"/>
<path class="st2" d="M958.5,714.5c6.64-9.85,28.31-9.67,33-2c0.57,0.93,0.61,1.52,1,5c1.07,9.66,1.81,19.36,3,29
	c0.62,5.04,0.96,6.31,0,8c-2.28,4.01-8.58,4.5-15,5c-6.73,0.53-10.1,0.79-13-1c-3.2-1.97-4.72-5.39-7-18
	C957.74,725.28,956.36,717.67,958.5,714.5z"/>
<path class="st2" d="M1011.5,705.5c5.11-0.43,11.65-0.99,17,3c3.67,2.74,5.11,7.82,8,18c2.74,9.66,5.45,19.6,1,23
	c-0.25,0.19-0.46,0.33-0.9,0.54c-1.81,0.87-4.66,0.91-16.1,1.46c-13.41,0.64-15.87,2.9-19,1c-3.21-1.95-2.44-5.12-5-22
	c-2.02-13.35-3.1-15.86-1-19C998.79,706.58,1005.93,705.97,1011.5,705.5z"/>
<path class="st2" d="M1056.5,695.5c-8.57-1.68-17.82,3.79-21,11c-0.67,1.51-1.35,3.73,1,18c3.2,19.45,5.44,21.26,7,22
	c2.48,1.17,6.35-0.2,14-3c9.89-3.62,14.83-5.43,17-9c4.04-6.67,0.35-15.43-2-21C1069.49,706.37,1065.66,697.3,1056.5,695.5z"/>
<path class="st2" d="M1087.5,675.5c-2.4,0.18-2.52,1.11-13,8c-10.31,6.78-12.36,7.3-13,10c-0.92,3.89,2.61,5.85,9,16
	c7.34,11.66,7.43,16.65,11,17c3.76,0.37,4.91-5.05,15-15c7.64-7.54,9.94-7.34,11-11C1110.35,690.62,1097.73,674.75,1087.5,675.5z"/>
<path class="st2" d="M1123.5,652.5c-4.57-0.18-11.11,3.88-24,12c-4.1,2.58-7.29,4.71-7,7c0.24,1.9,2.73,2.65,5,4
	c9.67,5.76,8.16,18.21,13,19c2.86,0.47,4.71-3.68,13-15c10.31-14.07,14.4-17.13,13-21C1134.53,653.05,1124.04,652.52,1123.5,652.5z"
	/>
<path class="st2" d="M905.5,715.5c-14.32,1.15-16.72-0.37-19,2c-2.51,2.61-1.37,8.11,1,19c2.61,12,4.02,18.06,9,21
	c0.95,0.56,1.53,0.72,11,2c14.1,1.9,15.13,1.86,16,1c3.12-3.08-3.16-9.38-5-24c-1.47-11.62,1.17-18.2-3-21
	C913.85,714.39,912.7,714.92,905.5,715.5z"/>
<path class="st2" d="M871.5,708.5c-8.59,1.62-11.92,10.96-13,14c-0.86,2.4-4.09,11.47,1,19c3.84,5.7,10.15,7.13,14,8
	c3.82,0.87,10.91,2.48,14-1c2.65-2.98-0.39-6.6-1-18c-0.56-10.45,1.7-13.14-1-17C882.56,709.3,876.45,707.56,871.5,708.5z"/>
<path class="st2" d="M846.5,701.5c-2.03,0.22-12.33,1.33-15,8c-3.16,7.89,6.34,18.57,15,22c1.7,0.67,3.27,1.41,5,1
	c2.75-0.65,4.24-3.44,7-10c3.95-9.37,5.9-14.1,5-16C860.44,700.03,847.15,701.43,846.5,701.5z"/>
<path class="st2" d="M818.5,673.5c-1.03-0.06-6.24-0.23-9,3c-6.64,7.78,3.33,32.44,15,33c4.14,0.2,9.82-2.58,13-7
	c0.73-1.01,1.59-2.21,2-4c1.25-5.44-3.05-10.41-7-15C827.67,677.89,824.16,673.82,818.5,673.5z"/>
<path class="st3" d="M757,613c0.9-0.55,7.86,10.13,47,65c27.66,38.78,30.34,42.08,36,47c29.49,25.67,64.7,30.16,87,33
	c15.92,2.03,58.43,5.64,102-11c97.33-37.17,133.52-150.03,139-147c4.07,2.25-14.63,65.34-67,117c-16.13,15.91-46.05,44.71-95,58
	c-14.37,3.9-45.75,12.05-84,4c-60.31-12.69-95.61-56.78-119-86C771.59,653.77,755.36,614,757,613z"/>
<path class="st4" d="M798.5,636.5c5.72,25.84,33.92,39.45,48,46c108.56,50.54,290.51-8.92,298-77c3.18-28.93-24.88-61.77-54-72
	c-39.2-13.77-57.59,21.41-126,27c-62.64,5.12-80.78-21.64-118-3C817.28,572.13,791.95,606.91,798.5,636.5z"/>
<path class="st5" d="M727,418c-9.8,18.36-25.2,52.18-33.28,100.35c-10.25,61.06-3.16,111.93,1.23,135.65"/>
<path class="st5" d="M1168,376c13.67,11.84,25.5,36.13,47,60c49.29,54.73,26.6,106.21,18,126"/>
</svg>
